<mxfile host="app.diagrams.net" modified="2023-07-12T14:02:51.094Z" agent="Mozilla/5.0 (Windows NT 10.0; Win64; x64) AppleWebKit/537.36 (KHTML, like Gecko) Chrome/114.0.0.0 Safari/537.36" etag="qC8NBICZT_Nii8SPBaoW" version="21.6.2" type="google">
  <diagram name="P치gina-1" id="R95nYsYYiMNeMXYoWrTs">
    <mxGraphModel grid="1" page="1" gridSize="10" guides="1" tooltips="1" connect="1" arrows="1" fold="1" pageScale="1" pageWidth="827" pageHeight="1169" math="0" shadow="0">
      <root>
        <mxCell id="0" />
        <mxCell id="1" parent="0" />
        <mxCell id="i8mLh2G2zFsKXM1E0jvs-5" value="" style="text;strokeColor=default;fillColor=none;align=left;verticalAlign=middle;spacingTop=-1;spacingLeft=4;spacingRight=4;rotatable=0;labelPosition=right;points=[];portConstraint=eastwest;strokeWidth=1;dashed=1;" vertex="1" parent="1">
          <mxGeometry x="200" y="60" width="390" height="630" as="geometry" />
        </mxCell>
        <mxCell id="x9bf6XarC4QM_HWPGeAx-5" style="edgeStyle=orthogonalEdgeStyle;rounded=0;orthogonalLoop=1;jettySize=auto;html=1;" edge="1" parent="1" source="i8mLh2G2zFsKXM1E0jvs-1" target="i8mLh2G2zFsKXM1E0jvs-2">
          <mxGeometry relative="1" as="geometry">
            <Array as="points">
              <mxPoint x="140" y="320" />
              <mxPoint x="140" y="195" />
            </Array>
          </mxGeometry>
        </mxCell>
        <mxCell id="x9bf6XarC4QM_HWPGeAx-36" style="edgeStyle=orthogonalEdgeStyle;rounded=0;orthogonalLoop=1;jettySize=auto;html=1;" edge="1" parent="1" source="i8mLh2G2zFsKXM1E0jvs-1" target="x9bf6XarC4QM_HWPGeAx-35">
          <mxGeometry relative="1" as="geometry">
            <Array as="points">
              <mxPoint x="100" y="560" />
            </Array>
          </mxGeometry>
        </mxCell>
        <mxCell id="bmOkcMAG9esMsUVubFV3-4" style="edgeStyle=orthogonalEdgeStyle;rounded=0;orthogonalLoop=1;jettySize=auto;html=1;" edge="1" parent="1" source="i8mLh2G2zFsKXM1E0jvs-1" target="bmOkcMAG9esMsUVubFV3-3">
          <mxGeometry relative="1" as="geometry">
            <Array as="points">
              <mxPoint x="105" y="115" />
            </Array>
          </mxGeometry>
        </mxCell>
        <mxCell id="bmOkcMAG9esMsUVubFV3-8" style="edgeStyle=orthogonalEdgeStyle;rounded=0;orthogonalLoop=1;jettySize=auto;html=1;" edge="1" parent="1" source="i8mLh2G2zFsKXM1E0jvs-1" target="bmOkcMAG9esMsUVubFV3-5">
          <mxGeometry relative="1" as="geometry">
            <Array as="points">
              <mxPoint x="110" y="470" />
            </Array>
          </mxGeometry>
        </mxCell>
        <mxCell id="i8mLh2G2zFsKXM1E0jvs-1" value="Usuario" style="shape=umlActor;verticalLabelPosition=bottom;verticalAlign=top;html=1;" vertex="1" parent="1">
          <mxGeometry x="90" y="310" width="30" height="60" as="geometry" />
        </mxCell>
        <mxCell id="i8mLh2G2zFsKXM1E0jvs-2" value="Agrupar muestras" style="ellipse;whiteSpace=wrap;html=1;" vertex="1" parent="1">
          <mxGeometry x="220" y="160" width="140" height="70" as="geometry" />
        </mxCell>
        <mxCell id="i8mLh2G2zFsKXM1E0jvs-3" value="Procesar muestras" style="ellipse;whiteSpace=wrap;html=1;" vertex="1" parent="1">
          <mxGeometry x="440" y="160" width="140" height="70" as="geometry" />
        </mxCell>
        <mxCell id="i8mLh2G2zFsKXM1E0jvs-6" value="Sistema" style="shape=umlActor;verticalLabelPosition=bottom;verticalAlign=top;html=1;" vertex="1" parent="1">
          <mxGeometry x="650" y="310" width="30" height="60" as="geometry" />
        </mxCell>
        <mxCell id="nFpcpEc9JABC4BX-4DVB-2" value="Enriquecer" style="ellipse;whiteSpace=wrap;html=1;" vertex="1" parent="1">
          <mxGeometry x="440" y="530" width="140" height="70" as="geometry" />
        </mxCell>
        <mxCell id="nFpcpEc9JABC4BX-4DVB-21" style="edgeStyle=orthogonalEdgeStyle;rounded=0;orthogonalLoop=1;jettySize=auto;html=1;entryX=1;entryY=0.5;entryDx=0;entryDy=0;dashed=1;dashPattern=1 2;" edge="1" parent="1" source="nFpcpEc9JABC4BX-4DVB-15" target="i8mLh2G2zFsKXM1E0jvs-2">
          <mxGeometry relative="1" as="geometry" />
        </mxCell>
        <mxCell id="x9bf6XarC4QM_HWPGeAx-23" style="edgeStyle=orthogonalEdgeStyle;rounded=0;orthogonalLoop=1;jettySize=auto;html=1;dashed=1;dashPattern=1 2;" edge="1" parent="1" source="nFpcpEc9JABC4BX-4DVB-15" target="i8mLh2G2zFsKXM1E0jvs-3">
          <mxGeometry relative="1" as="geometry">
            <Array as="points">
              <mxPoint x="400" y="115" />
              <mxPoint x="400" y="195" />
            </Array>
          </mxGeometry>
        </mxCell>
        <mxCell id="x9bf6XarC4QM_HWPGeAx-27" style="edgeStyle=orthogonalEdgeStyle;rounded=0;orthogonalLoop=1;jettySize=auto;html=1;dashed=1;dashPattern=1 2;entryX=0;entryY=0.5;entryDx=0;entryDy=0;entryPerimeter=0;" edge="1" parent="1" source="nFpcpEc9JABC4BX-4DVB-15" target="x9bf6XarC4QM_HWPGeAx-26">
          <mxGeometry relative="1" as="geometry">
            <Array as="points">
              <mxPoint x="400" y="115" />
              <mxPoint x="400" y="385" />
            </Array>
          </mxGeometry>
        </mxCell>
        <mxCell id="x9bf6XarC4QM_HWPGeAx-28" style="edgeStyle=orthogonalEdgeStyle;rounded=0;orthogonalLoop=1;jettySize=auto;html=1;dashed=1;dashPattern=1 2;" edge="1" parent="1" source="nFpcpEc9JABC4BX-4DVB-15" target="nFpcpEc9JABC4BX-4DVB-18">
          <mxGeometry relative="1" as="geometry">
            <Array as="points">
              <mxPoint x="400" y="115" />
              <mxPoint x="400" y="285" />
            </Array>
          </mxGeometry>
        </mxCell>
        <mxCell id="x9bf6XarC4QM_HWPGeAx-29" style="edgeStyle=orthogonalEdgeStyle;rounded=0;orthogonalLoop=1;jettySize=auto;html=1;dashed=1;dashPattern=1 2;" edge="1" parent="1" target="nFpcpEc9JABC4BX-4DVB-2">
          <mxGeometry relative="1" as="geometry">
            <Array as="points">
              <mxPoint x="400" y="115" />
              <mxPoint x="400" y="565" />
            </Array>
            <mxPoint x="452.5543735346198" y="115" as="sourcePoint" />
            <mxPoint x="360" y="585" as="targetPoint" />
          </mxGeometry>
        </mxCell>
        <mxCell id="bmOkcMAG9esMsUVubFV3-6" style="edgeStyle=orthogonalEdgeStyle;rounded=0;orthogonalLoop=1;jettySize=auto;html=1;dashed=1;dashPattern=1 2;" edge="1" parent="1" source="nFpcpEc9JABC4BX-4DVB-15" target="bmOkcMAG9esMsUVubFV3-3">
          <mxGeometry relative="1" as="geometry" />
        </mxCell>
        <mxCell id="WB3HQvkpxGE8hbq78Kw1-3" style="edgeStyle=orthogonalEdgeStyle;rounded=0;orthogonalLoop=1;jettySize=auto;html=1;dashed=1;dashPattern=1 2;" edge="1" parent="1" source="nFpcpEc9JABC4BX-4DVB-15" target="x9bf6XarC4QM_HWPGeAx-12">
          <mxGeometry relative="1" as="geometry">
            <Array as="points">
              <mxPoint x="400" y="115" />
              <mxPoint x="400" y="385" />
            </Array>
          </mxGeometry>
        </mxCell>
        <mxCell id="nFpcpEc9JABC4BX-4DVB-15" value="Avisar (loguear)" style="ellipse;whiteSpace=wrap;html=1;" vertex="1" parent="1">
          <mxGeometry x="440" y="80" width="140" height="70" as="geometry" />
        </mxCell>
        <mxCell id="nFpcpEc9JABC4BX-4DVB-18" value="Procesar sondas" style="ellipse;whiteSpace=wrap;html=1;" vertex="1" parent="1">
          <mxGeometry x="220" y="250" width="140" height="70" as="geometry" />
        </mxCell>
        <mxCell id="x9bf6XarC4QM_HWPGeAx-11" value="Generar reporte muestras" style="ellipse;whiteSpace=wrap;html=1;" vertex="1" parent="1">
          <mxGeometry x="440" y="250" width="140" height="70" as="geometry" />
        </mxCell>
        <mxCell id="x9bf6XarC4QM_HWPGeAx-12" value="Procesar genes" style="ellipse;whiteSpace=wrap;html=1;" vertex="1" parent="1">
          <mxGeometry x="220" y="350" width="140" height="70" as="geometry" />
        </mxCell>
        <mxCell id="x9bf6XarC4QM_HWPGeAx-26" value="Calcular expresi칩n" style="ellipse;whiteSpace=wrap;html=1;" vertex="1" parent="1">
          <mxGeometry x="440" y="350" width="140" height="70" as="geometry" />
        </mxCell>
        <mxCell id="x9bf6XarC4QM_HWPGeAx-32" value="*Todos los casos de uso se encuentran conectados con el sistema" style="text;html=1;strokeColor=none;fillColor=none;align=center;verticalAlign=middle;whiteSpace=wrap;rounded=0;" vertex="1" parent="1">
          <mxGeometry x="200" y="690" width="390" height="30" as="geometry" />
        </mxCell>
        <mxCell id="bmOkcMAG9esMsUVubFV3-2" value="*" style="text;html=1;strokeColor=none;fillColor=none;align=center;verticalAlign=middle;whiteSpace=wrap;rounded=0;fontSize=26;" vertex="1" parent="1">
          <mxGeometry x="650" y="300" width="60" height="30" as="geometry" />
        </mxCell>
        <mxCell id="bmOkcMAG9esMsUVubFV3-3" value="Cargar metadatos" style="ellipse;whiteSpace=wrap;html=1;" vertex="1" parent="1">
          <mxGeometry x="220" y="80" width="140" height="70" as="geometry" />
        </mxCell>
        <mxCell id="bmOkcMAG9esMsUVubFV3-5" value="Cargar resultados" style="ellipse;whiteSpace=wrap;html=1;" vertex="1" parent="1">
          <mxGeometry x="220" y="435" width="140" height="70" as="geometry" />
        </mxCell>
        <mxCell id="WB3HQvkpxGE8hbq78Kw1-1" value="Generar reporte muestras" style="ellipse;whiteSpace=wrap;html=1;" vertex="1" parent="1">
          <mxGeometry x="440" y="440" width="140" height="70" as="geometry" />
        </mxCell>
        <mxCell id="x9bf6XarC4QM_HWPGeAx-35" value="An치lisis y metan치lisis de resultados" style="ellipse;whiteSpace=wrap;html=1;" vertex="1" parent="1">
          <mxGeometry x="220" y="530" width="140" height="70" as="geometry" />
        </mxCell>
      </root>
    </mxGraphModel>
  </diagram>
</mxfile>
